<svg width="48" height="48" viewBox="0 0 48 48" fill="none" xmlns="http://www.w3.org/2000/svg">
<path d="M40 20.2025C40 27.5659 29.1661 38.9248 25.3281 42.7177C24.5836 43.4535 23.4164 43.4535 22.6719 42.7177C18.8339 38.9248 8 27.5659 8 20.2025C8 11.2541 15.1634 4 24 4C32.8366 4 40 11.2541 40 20.2025Z" fill="#F0712A"/>
<path d="M23.0475 15.4167C23.0475 17.4122 22.2525 19.1099 21.1429 19.7391V28.25C21.1429 28.7563 20.7165 29.1667 20.1905 29.1667C19.6645 29.1667 19.2381 28.7563 19.2381 28.25V19.7392C18.1284 19.1101 17.3333 17.4123 17.3333 15.4167C17.3333 12.8854 18.6124 10.8333 20.1904 10.8333C21.7684 10.8333 23.0475 12.8854 23.0475 15.4167Z" fill="white"/>
<path d="M26.8571 10.8333V28.2499C26.8571 28.7562 27.2835 29.1666 27.8094 29.1666C28.3354 29.1666 28.7618 28.7562 28.7618 28.2499V21.2251C28.7618 21.1266 28.746 21.0326 28.7169 20.9449C29.942 20.0819 30.5167 18.4642 30.6666 17.5173V16.1805C30.6666 12.9722 28.1269 10.8333 26.8571 10.8333Z" fill="white"/>
</svg>
