<svg width="48" height="48" viewBox="0 0 48 48" fill="none" xmlns="http://www.w3.org/2000/svg">
<path d="M40 20.2025C40 27.5659 29.1661 38.9248 25.3281 42.7177C24.5836 43.4535 23.4164 43.4535 22.6719 42.7177C18.8339 38.9248 8 27.5659 8 20.2025C8 11.2541 15.1634 4 24 4C32.8366 4 40 11.2541 40 20.2025Z" fill="#21A400"/>
<path fill-rule="evenodd" clip-rule="evenodd" d="M20.6667 21.6667C20.6667 19.8257 22.1591 18.3333 24.0001 18.3333C25.841 18.3333 27.3334 19.8257 27.3334 21.6667C27.3334 23.5076 25.841 25 24.0001 25C22.1591 25 20.6667 23.5076 20.6667 21.6667ZM24.0001 20C23.0796 20 22.3334 20.7462 22.3334 21.6667C22.3334 22.5872 23.0796 23.3333 24.0001 23.3333C24.9206 23.3333 25.6667 22.5872 25.6667 21.6667C25.6667 20.7462 24.9206 20 24.0001 20Z" fill="white"/>
<path d="M29.8334 18.3333H28.1667V20H29.8334V18.3333Z" fill="white"/>
<path fill-rule="evenodd" clip-rule="evenodd" d="M20.8116 14.0676C21.1214 13.6085 21.6391 13.3333 22.193 13.3333H25.8072C26.361 13.3333 26.8787 13.6085 27.1886 14.0676L28.3805 15.8333H30.6667C31.5872 15.8333 32.3334 16.5795 32.3334 17.5V25.8333C32.3334 26.7538 31.5872 27.5 30.6667 27.5H17.3334C16.4129 27.5 15.6667 26.7538 15.6667 25.8333V17.5C15.6667 16.5795 16.4129 15.8333 17.3334 15.8333H19.6197L20.8116 14.0676ZM25.8072 15L22.193 15L20.5055 17.5H17.3334V25.8333H30.6667V17.5H27.4947L25.8072 15Z" fill="white"/>
</svg>
